<svg width="34" height="34" viewBox="0 0 34 34" fill="none" xmlns="http://www.w3.org/2000/svg">
<path d="M17.0938 33.0156C19.3229 33.0156 21.4219 32.5885 23.3906 31.7344C25.3594 30.8906 27.0885 29.7188 28.5781 28.2188C30.0781 26.7188 31.2552 24.9896 32.1094 23.0312C32.9635 21.0625 33.3906 18.9583 33.3906 16.7188C33.3906 14.4896 32.9635 12.3958 32.1094 10.4375C31.2552 8.46875 30.0781 6.73438 28.5781 5.23438C27.0885 3.73438 25.3542 2.5625 23.375 1.71875C21.4062 0.864583 19.3073 0.4375 17.0781 0.4375C14.849 0.4375 12.75 0.864583 10.7812 1.71875C8.8125 2.5625 7.07812 3.73438 5.57812 5.23438C4.08854 6.73438 2.91667 8.46875 2.0625 10.4375C1.21875 12.3958 0.796875 14.4896 0.796875 16.7188C0.796875 18.9583 1.21875 21.0625 2.0625 23.0312C2.91667 24.9896 4.09375 26.7188 5.59375 28.2188C7.09375 29.7188 8.82812 30.8906 10.7969 31.7344C12.7656 32.5885 14.8646 33.0156 17.0938 33.0156ZM25.5469 16.7031C25.5469 17.1927 25.349 17.6302 24.9531 18.0156L19.4062 23.4219C19.0938 23.724 18.7292 23.875 18.3125 23.875C17.8958 23.875 17.5521 23.7396 17.2812 23.4688C17.0208 23.1875 16.8906 22.8333 16.8906 22.4062C16.8906 21.9583 17.0521 21.5938 17.375 21.3125L19.2969 19.5312L21.0312 18.1562L17.7344 18.3438H10.1562C9.69792 18.3438 9.32292 18.1875 9.03125 17.875C8.73958 17.5625 8.59375 17.1719 8.59375 16.7031C8.59375 16.2344 8.73958 15.8438 9.03125 15.5312C9.32292 15.2188 9.69792 15.0625 10.1562 15.0625H17.7344L21.0156 15.25L19.2656 13.875L17.375 12.0938C17.0521 11.7917 16.8906 11.4323 16.8906 11.0156C16.8906 10.5885 17.0208 10.2396 17.2812 9.96875C17.5521 9.6875 17.8958 9.54688 18.3125 9.54688C18.7396 9.54688 19.1042 9.69271 19.4062 9.98438L24.9531 15.4062C25.349 15.7812 25.5469 16.2135 25.5469 16.7031Z" fill="currentColor"/>
</svg>
