<svg width="34" height="34" viewBox="0 0 34 34" fill="none" xmlns="http://www.w3.org/2000/svg">
<path d="M17.0938 33.0156C19.3229 33.0156 21.4219 32.5885 23.3906 31.7344C25.3594 30.8906 27.0885 29.7188 28.5781 28.2188C30.0781 26.7188 31.2552 24.9896 32.1094 23.0312C32.9635 21.0625 33.3906 18.9583 33.3906 16.7188C33.3906 14.4896 32.9635 12.3958 32.1094 10.4375C31.2552 8.46875 30.0781 6.73438 28.5781 5.23438C27.0885 3.73438 25.3542 2.5625 23.375 1.71875C21.4062 0.864583 19.3073 0.4375 17.0781 0.4375C14.849 0.4375 12.75 0.864583 10.7812 1.71875C8.8125 2.5625 7.07812 3.73438 5.57812 5.23438C4.08854 6.73438 2.91667 8.46875 2.0625 10.4375C1.21875 12.3958 0.796875 14.4896 0.796875 16.7188C0.796875 18.9583 1.21875 21.0625 2.0625 23.0312C2.91667 24.9896 4.09375 26.7188 5.59375 28.2188C7.09375 29.7188 8.82812 30.8906 10.7969 31.7344C12.7656 32.5885 14.8646 33.0156 17.0938 33.0156ZM8.64062 16.7031C8.64062 16.2135 8.84375 15.7812 9.25 15.4062L14.7969 9.98438C15.0885 9.69271 15.4531 9.54688 15.8906 9.54688C16.2969 9.54688 16.6354 9.6875 16.9062 9.96875C17.1771 10.2396 17.3125 10.5885 17.3125 11.0156C17.3125 11.4323 17.151 11.7917 16.8281 12.0938L14.9375 13.875L13.1719 15.25L16.4688 15.0625H24.0312C24.4896 15.0625 24.8646 15.2188 25.1562 15.5312C25.4479 15.8438 25.5938 16.2344 25.5938 16.7031C25.5938 17.1719 25.4479 17.5625 25.1562 17.875C24.8646 18.1875 24.4896 18.3438 24.0312 18.3438H16.4688L13.1719 18.1562L14.9062 19.5312L16.8281 21.3125C17.151 21.5938 17.3125 21.9583 17.3125 22.4062C17.3125 22.8333 17.1771 23.1875 16.9062 23.4688C16.6354 23.7396 16.2969 23.875 15.8906 23.875C15.4635 23.875 15.099 23.724 14.7969 23.4219L9.25 18.0156C8.84375 17.6302 8.64062 17.1927 8.64062 16.7031Z" fill="currentColor"/>
</svg>
