<?xml version="1.0" encoding="UTF-8"?>
<!-- Generator: Apple Native CoreSVG 232.5 -->
<!DOCTYPE svg PUBLIC "-//W3C//DTD SVG 1.1//EN" "http://www.w3.org/Graphics/SVG/1.1/DTD/svg11.dtd">
<svg version="1.1" xmlns="http://www.w3.org/2000/svg" xmlns:xlink="http://www.w3.org/1999/xlink" width="32.25" height="31.8906">
	<g>
		<rect height="31.8906" opacity="0" width="32.25" x="0" y="0" />
		<path d="M31.875 15.9531C31.875 24.6719 24.6562 31.8906 15.9375 31.8906C7.23438 31.8906 0 24.6719 0 15.9531C0 7.25 7.21875 0.015625 15.9219 0.015625C24.6406 0.015625 31.875 7.25 31.875 15.9531ZM15.4688 7.07812L12.375 10.2188C12 10.6094 11.9844 11.3281 12.375 11.7188L15.5 14.8281C15.6719 15 15.9531 15.1406 16.2031 15.1406C16.7969 15.1406 17.2344 14.6875 17.2344 14.1094C17.2344 13.8281 17.1094 13.5781 16.9219 13.375L15.375 11.8438C15.5312 11.8125 15.7344 11.7969 15.9375 11.7969C18.7031 11.7969 20.8906 14 20.8906 16.7656C20.8906 19.5156 18.7031 21.7344 15.9375 21.7344C13.1875 21.7344 10.9844 19.5156 10.9844 16.7656C10.9844 16.1562 10.4844 15.6562 9.85938 15.6562C9.26562 15.6562 8.75 16.1562 8.75 16.7656C8.75 20.7344 11.9531 23.9688 15.9375 23.9688C19.9219 23.9688 23.125 20.7344 23.125 16.7031C23.125 12.75 19.875 9.64062 16.25 9.64062C16.1094 9.64062 15.9375 9.65625 15.8281 9.67188L16.9531 8.51562C17.1094 8.34375 17.2344 8.0625 17.2344 7.78125C17.2344 7.20312 16.7969 6.73438 16.2031 6.73438C15.9219 6.73438 15.6562 6.875 15.4688 7.07812Z" fill="currentColor" fill-opacity="0.85" />
	</g>
</svg>
