<svg width="64" height="50" viewBox="0 0 64 50" fill="none" xmlns="http://www.w3.org/2000/svg">
    <path d="M8.18241 49.6938H55.8176C61.2378 49.6938 64 46.9837 64 41.6156V14.3322C64 8.96417 61.2378 6.28013 55.8176 6.28013H48.3648C46.3062 6.28013 45.6808 5.86319 44.5081 4.56026L42.4235 2.21498C41.1205 0.781759 39.7915 0 37.1075 0H26.7101C24.0261 0 22.6971 0.781759 21.3941 2.21498L19.3094 4.56026C18.1368 5.83713 17.4853 6.28013 15.4528 6.28013H8.18241C2.73616 6.28013 0 8.96417 0 14.3322V41.6156C0 46.9837 2.73616 49.6938 8.18241 49.6938ZM32 42.0065C24.1042 42.0065 17.772 35.7003 17.772 27.7524C17.772 19.8306 24.1042 13.5244 32 13.5244C39.8958 13.5244 46.202 19.8306 46.202 27.7524C46.202 35.7003 39.8697 42.0065 32 42.0065ZM47.9479 18.1629C47.9479 16.3909 49.5114 14.8274 51.3355 14.8274C53.1335 14.8274 54.671 16.3909 54.671 18.1629C54.671 20.013 53.1335 21.4984 51.3355 21.5244C49.5114 21.5244 47.9479 20.0391 47.9479 18.1629ZM32 38.0456C37.6808 38.0456 42.2671 33.4853 42.2671 27.7524C42.2671 22.0456 37.6808 17.4593 32 17.4593C26.3192 17.4593 21.7068 22.0456 21.7068 27.7524C21.7068 33.4853 26.3453 38.0456 32 38.0456Z" fill="white"/>
</svg>
