<svg width="63" height="75" viewBox="0 0 63 75" fill="none" xmlns="http://www.w3.org/2000/svg">
    <path d="M2.0625 16.8125C0.59375 18.1875 0.625 20.3438 2.0625 21.7188L18.1562 37.4688C18.8125 38.0938 19.75 38.4688 20.5625 38.4688C22.5 38.4688 23.8438 37.125 23.8438 35.2188C23.8438 34.3125 23.5312 33.5625 22.9062 32.9375L16.2188 26.5L11.3438 22.3125L18.0312 22.5625H58.7188C60.5938 22.5625 62 21.1562 62 19.25C62 17.3438 60.5938 15.9688 58.7188 15.9688H18.0312L11.3438 16.2188L16.2188 12.0312L22.9062 5.59375C23.5312 4.96875 23.8438 4.21875 23.8438 3.28125C23.8438 1.375 22.5 0.03125 20.5625 0.03125C19.75 0.03125 18.8125 0.4375 18.1562 1.0625L2.0625 16.8125ZM60.9375 58.125C62.375 56.7188 62.3438 54.5938 60.9375 53.2188L44.8125 37.4688C44.1875 36.8438 43.2188 36.4375 42.4062 36.4375C40.4688 36.4375 39.1562 37.8125 39.1562 39.7188C39.1562 40.625 39.4375 41.375 40.0938 42L46.75 48.4375L51.625 52.625L44.9375 52.375H4.25C2.375 52.375 0.96875 53.75 0.96875 55.6875C0.96875 57.5938 2.375 58.9688 4.25 58.9688H44.9375L51.625 58.7188L46.75 62.9062L40.0938 69.3438C39.4375 69.9688 39.1562 70.7188 39.1562 71.625C39.1562 73.5312 40.4688 74.9062 42.4062 74.9062C43.2188 74.9062 44.1875 74.5 44.8125 73.875L60.9375 58.125Z" fill="white"/>
</svg>
