<svg width="38" height="38" viewBox="0 0 38 38" xmlns="http://www.w3.org/2000/svg">
    <rect width="38" height="38" rx="19" />
    <path fill="currentColor" d="M8.89888 15.1497C9.49438 15.1497 9.80899 14.8125 9.80899 14.2279V11.5749C9.80899 10.4057 10.427 9.80991 11.5506 9.80991H14.2697C14.8652 9.80991 15.191 9.4839 15.191 8.89934C15.191 8.31477 14.8652 8 14.2697 8H11.5281C9.17978 8 8 9.15789 8 11.4737V14.2279C8 14.8125 8.32584 15.1497 8.89888 15.1497ZM29.0899 15.1497C29.6854 15.1497 30 14.8125 30 14.2279V11.4737C30 9.15789 28.8202 8 26.4719 8H23.7191C23.1348 8 22.809 8.31477 22.809 8.89934C22.809 9.4839 23.1348 9.80991 23.7191 9.80991H26.4382C27.5506 9.80991 28.191 10.4057 28.191 11.5749V14.2279C28.191 14.8125 28.5169 15.1497 29.0899 15.1497ZM12.9888 14.6776C12.9888 15.0935 13.3258 15.4308 13.7528 15.4308H24.2472C24.6629 15.4308 25.0112 15.0935 25.0112 14.6776C25.0112 14.2616 24.6629 13.9131 24.2472 13.9131H13.7528C13.3258 13.9131 12.9888 14.2616 12.9888 14.6776ZM12.9888 18.9944C12.9888 19.4103 13.3258 19.7476 13.7528 19.7476H24.2472C24.6629 19.7476 25.0112 19.4103 25.0112 18.9944C25.0112 18.5784 24.6629 18.2299 24.2472 18.2299H13.7528C13.3258 18.2299 12.9888 18.5784 12.9888 18.9944ZM12.9888 23.3112C12.9888 23.7271 13.3258 24.0756 13.7528 24.0756H20.6517C21.0674 24.0756 21.4157 23.7271 21.4157 23.3112C21.4157 22.8952 21.0674 22.558 20.6517 22.558H13.7528C13.3258 22.558 12.9888 22.8952 12.9888 23.3112ZM11.5281 30H14.2697C14.8652 30 15.191 29.674 15.191 29.1007C15.191 28.5161 14.8652 28.1901 14.2697 28.1901H11.5506C10.427 28.1901 9.80899 27.5943 9.80899 26.4251V23.7721C9.80899 23.1763 9.48315 22.8503 8.89888 22.8503C8.31461 22.8503 8 23.1763 8 23.7721V26.5151C8 28.8421 9.17978 30 11.5281 30ZM23.7191 30H26.4719C28.8202 30 30 28.8309 30 26.5151V23.7721C30 23.1763 29.6742 22.8503 29.0899 22.8503C28.5056 22.8503 28.191 23.1763 28.191 23.7721V26.4251C28.191 27.5943 27.5506 28.1901 26.4382 28.1901H23.7191C23.1348 28.1901 22.809 28.5161 22.809 29.1007C22.809 29.674 23.1348 30 23.7191 30Z" />
</svg>
