<svg width="33" height="32" viewBox="0 0 33 32" xmlns="http://www.w3.org/2000/svg">
    <path fill="currentColor" stroke="currentColor" d="M32.3047 16C32.3047 24.4614 25.2812 31.5 16.8047 31.5C8.34358 31.5 1.30469 24.4611 1.30469 16C1.30469 7.52288 8.32821 0.5 16.789 0.5C25.2664 0.5 32.3047 7.52384 32.3047 16ZM2.98704 16C2.98704 23.6793 9.12385 29.8333 16.8047 29.8333C24.4838 29.8333 30.6543 23.6808 30.638 15.9989C30.6217 8.31991 24.4693 2.16667 16.789 2.16667C9.1074 2.16667 2.98704 8.32148 2.98704 16ZM11.2537 15.9843C11.2537 16.981 10.4557 17.7745 9.4792 17.7745C8.48475 17.7745 7.689 16.9788 7.689 15.9843C7.689 15.0078 8.48251 14.2098 9.4792 14.2098C10.4445 14.2098 11.2537 15.0078 11.2537 15.9843ZM18.5792 15.9843C18.5792 16.9765 17.77 17.7745 16.789 17.7745C15.808 17.7745 14.9988 16.9765 14.9988 15.9843C14.9988 15.01 15.8058 14.2098 16.789 14.2098C17.7722 14.2098 18.5792 15.01 18.5792 15.9843ZM25.889 15.9843C25.889 16.981 25.091 17.7745 24.1145 17.7745C23.12 17.7745 22.3243 16.9788 22.3243 15.9843C22.3243 15.0078 23.1178 14.2098 24.1145 14.2098C25.0933 14.2098 25.889 15.0056 25.889 15.9843Z" />
</svg>
