<svg width="33" height="32" viewBox="0 0 33 32" xmlns="http://www.w3.org/2000/svg">
    <rect stroke="currentColor" x="2" y="1" width="30" height="30" rx="15" stroke-width="2"/>
    <path fill="currentColor" d="M11.2537 15.9843C11.2537 16.981 10.4557 17.7745 9.4792 17.7745C8.48475 17.7745 7.689 16.9788 7.689 15.9843C7.689 15.0078 8.48251 14.2098 9.4792 14.2098C10.4445 14.2098 11.2537 15.0078 11.2537 15.9843ZM18.5792 15.9843C18.5792 16.9765 17.77 17.7745 16.789 17.7745C15.808 17.7745 14.9988 16.9765 14.9988 15.9843C14.9988 15.01 15.8058 14.2098 16.789 14.2098C17.7722 14.2098 18.5792 15.01 18.5792 15.9843ZM25.889 15.9843C25.889 16.981 25.091 17.7745 24.1145 17.7745C23.12 17.7745 22.3243 16.9788 22.3243 15.9843C22.3243 15.0078 23.1178 14.2098 24.1145 14.2098C25.0933 14.2098 25.889 15.0056 25.889 15.9843Z" />
</svg>
