<svg xmlns="http://www.w3.org/2000/svg" width="21" height="21" viewBox="0 0 21 21">
  <path fill="currentColor" fill-opacity=".85" d="M9.463 20.879h1.973c.752 0 1.328-.46 1.504-1.182l.42-1.826.312-.107 1.592.976c.634.4 1.367.303 1.904-.234l1.367-1.358c.537-.537.635-1.279.235-1.904l-.997-1.582.118-.293 1.826-.43c.713-.175 1.181-.761 1.181-1.504V9.502c0-.742-.459-1.328-1.181-1.504l-1.807-.44-.127-.312.996-1.582c.4-.625.303-1.357-.234-1.904l-1.367-1.367c-.528-.528-1.26-.625-1.895-.235l-1.592.977-.332-.127-.42-1.826C12.764.459 12.188 0 11.436 0H9.463C8.71 0 8.135.459 7.959 1.182l-.43 1.826-.332.127-1.582-.977c-.635-.39-1.377-.293-1.904.235L2.354 3.76c-.538.547-.645 1.28-.235 1.904l.986 1.582-.117.313-1.806.439C.459 8.174 0 8.76 0 9.502v1.933c0 .743.469 1.329 1.182 1.505l1.826.43.107.292-.986 1.582c-.41.625-.303 1.367.234 1.904l1.358 1.358c.537.537 1.279.635 1.914.234l1.582-.976.312.107.43 1.826c.176.723.752 1.182 1.504 1.182Zm.156-1.524c-.166 0-.254-.068-.283-.224l-.586-2.422a5.517 5.517 0 0 1-1.572-.645l-2.13 1.309c-.116.088-.243.068-.36-.049l-1.153-1.152c-.107-.108-.117-.225-.039-.362l1.309-2.109a7.116 7.116 0 0 1-.635-1.562l-2.422-.576c-.156-.03-.225-.118-.225-.284V9.65c0-.176.059-.254.225-.284L4.16 8.78c.156-.634.45-1.21.625-1.572l-1.299-2.11c-.088-.146-.078-.263.03-.38l1.162-1.133c.117-.117.224-.137.37-.049l2.11 1.28A7.922 7.922 0 0 1 8.76 4.17l.576-2.422c.03-.156.117-.225.283-.225h1.66c.166 0 .254.069.274.225l.595 2.441c.606.157 1.133.4 1.573.635l2.119-1.289c.156-.088.254-.068.38.049l1.153 1.133c.117.117.117.234.03.38l-1.3 2.11c.186.361.47.938.625 1.572l2.422.586c.157.03.225.108.225.283v1.631c0 .166-.078.254-.225.284l-2.431.576a6.669 6.669 0 0 1-.635 1.562l1.309 2.11c.078.136.078.253-.04.36l-1.142 1.153c-.127.117-.244.137-.371.049l-2.13-1.309a5.45 5.45 0 0 1-1.562.645l-.595 2.422c-.02.156-.108.224-.274.224Zm.83-5.185c2.041 0 3.72-1.68 3.72-3.73 0-2.032-1.679-3.711-3.72-3.711-2.04 0-3.73 1.68-3.73 3.71 0 2.041 1.68 3.73 3.73 3.73Zm0-1.514a2.22 2.22 0 0 1-2.207-2.216c0-1.202.996-2.198 2.207-2.198 1.192 0 2.188.996 2.188 2.197 0 1.211-.996 2.217-2.188 2.217Z"/>
</svg>