<svg width="32" height="32" viewBox="0 0 32 32" xmlns="http://www.w3.org/2000/svg">
    <rect stroke="currentColor" x="1" y="1" width="30" height="30" rx="15" stroke-width="2"/>
    <path fill="currentColor" d="M11.341 16.7275C11.2725 16.6659 11.2383 16.5871 11.2383 16.4912C11.2383 16.3953 11.2862 16.2857 11.3821 16.1624L16.9308 9.19572C17.0404 9.05872 17.1603 8.99364 17.2904 9.00049C17.4206 9.00049 17.5199 9.05529 17.5884 9.16489C17.6569 9.26765 17.6603 9.40123 17.5987 9.56563L15.7389 14.5594H19.1708C19.2804 14.5594 19.366 14.5902 19.4277 14.6519C19.4962 14.7067 19.5304 14.7855 19.5304 14.8882C19.5304 14.9841 19.4825 15.0903 19.3866 15.2068L13.8379 22.1837C13.7283 22.3138 13.6084 22.3789 13.4783 22.3789C13.3481 22.3789 13.2488 22.3275 13.1803 22.2248C13.1118 22.1152 13.1084 21.9748 13.17 21.8035L15.0299 16.8097H11.5876C11.4917 16.8097 11.4095 16.7823 11.341 16.7275Z"/>
</svg>
