<svg width="64" height="65" viewBox="0 0 64 65" fill="none" xmlns="http://www.w3.org/2000/svg">
	<path d="M26.137 52.274C31.8131 52.274 37.0473 50.4387 41.3298 47.3797L57.4403 63.4902C58.188 64.2379 59.1737 64.6118 60.2273 64.6118C62.4365 64.6118 64 62.9124 64 60.7371C64 59.7175 63.6601 58.7318 62.9124 58.0181L46.9039 41.9756C50.2687 37.5571 52.274 32.085 52.274 26.137C52.274 11.76 40.5141 0 26.137 0C11.7939 0 0 11.726 0 26.137C0 40.5141 11.76 52.274 26.137 52.274ZM26.137 46.632C14.9209 46.632 5.64206 37.3532 5.64206 26.137C5.64206 14.9209 14.9209 5.64206 26.137 5.64206C37.3532 5.64206 46.632 14.9209 46.632 26.137C46.632 37.3532 37.3532 46.632 26.137 46.632Z" fill="currentColor" />
</svg>
