<svg width="33" height="33" viewBox="0 0 33 33" xmlns="http://www.w3.org/2000/svg">
    <path fill="currentColor" d="M16.5 33C25.5314 33 33 25.5314 33 16.5C33 7.45214 25.5314 0 16.4835 0C7.45214 0 0 7.45214 0 16.5C0 25.5314 7.46859 33 16.5 33ZM8.75175 16.5165C8.75175 15.8584 9.21236 15.3978 9.87039 15.3978H15.4143V9.85394C15.4143 9.21236 15.8584 8.73529 16.4835 8.73529C17.1416 8.73529 17.6022 9.19591 17.6022 9.85394V15.3978H23.1461C23.7876 15.3978 24.2483 15.8584 24.2483 16.5165C24.2483 17.1251 23.7712 17.5857 23.1461 17.5857H17.6022V23.1296C17.6022 23.7712 17.1416 24.2318 16.4835 24.2318C15.8584 24.2318 15.4143 23.7547 15.4143 23.1296V17.5857H9.87039C9.22881 17.5857 8.75175 17.1251 8.75175 16.5165Z"/>
</svg>
