<svg width="72" height="72" viewBox="0 0 72 72" xmlns="http://www.w3.org/2000/svg">
    <g fill="currentColor" fill-rule="evenodd">
        <path d="M72 36C72 55.8823 55.8823 72 36 72C16.1177 72 0 55.8823 0 36C0 16.1177 16.1177 0 36 0C55.8823 0 72 16.1177 72 36Z"/>
    </g>
    <path d="M68 36C68 53.6731 53.6731 68 36 68C18.3269 68 4 53.6731 4 36C4 18.3269 18.3269 4 36 4C53.6731 4 68 18.3269 68 36Z" />
    <g fill="currentColor" fill-rule="evenodd">
        <path d="M36 66C52.5685 66 66 52.5685 66 36C66 19.4315 52.5685 6 36 6C19.4315 6 6 19.4315 6 36C6 52.5685 19.4315 66 36 66Z"/>
    </g>
    <path d="M34.8402 24.4194C36.343 24.4194 37.7964 24.7028 39.203 25.2696C40.6434 25.8546 41.92 26.7022 43.0302 27.8124C43.0354 27.8176 44.1664 28.9252 46.4232 31.1326V26.736C46.4232 26.4162 46.535 26.1432 46.7612 25.917C46.9874 25.6908 47.2604 25.5764 47.5802 25.5764C47.9 25.5764 48.173 25.6908 48.3992 25.917C48.6254 26.1432 48.7372 26.4162 48.7372 26.736V33.6858C48.7372 34.0056 48.6254 34.2786 48.3992 34.5048C48.173 34.731 47.9 34.8454 47.5802 34.8454H40.633C40.3132 34.8454 40.0402 34.731 39.814 34.5048C39.5878 34.2786 39.4734 34.0056 39.4734 33.6858C39.4734 33.366 39.5852 33.093 39.814 32.8668C40.0402 32.6406 40.3132 32.5262 40.633 32.5262H44.5408C42.8638 30.896 41.816 29.8716 41.3922 29.4504C40.4926 28.5508 39.4708 27.8722 38.3242 27.4146C37.2192 26.9622 36.0596 26.736 34.8402 26.736C33.6208 26.736 32.4612 26.9622 31.3562 27.4146C30.2044 27.8722 29.1826 28.5508 28.2882 29.4504C27.3964 30.3422 26.7178 31.364 26.2524 32.5184C25.8 33.6234 25.5738 34.783 25.5738 36.0024C25.5738 37.2218 25.8 38.3814 26.2524 39.4864C26.7178 40.6382 27.3964 41.66 28.2882 42.5544C29.18 43.454 30.2018 44.1326 31.3562 44.5902C32.4612 45.0426 33.6208 45.2688 34.8402 45.2688C36.0596 45.2688 37.2192 45.0426 38.3242 44.5902C39.4708 44.1326 40.4926 43.454 41.3922 42.5544C42.3932 41.5534 43.1238 40.399 43.5814 39.0886C43.6854 38.787 43.8804 38.5686 44.169 38.4334C44.4576 38.2982 44.754 38.2826 45.0556 38.384C45.3572 38.4932 45.5782 38.6908 45.716 38.982C45.8538 39.2706 45.8694 39.567 45.7602 39.8686C45.482 40.659 45.1076 41.4312 44.6344 42.1852C44.1612 42.9392 43.6256 43.61 43.0276 44.1924C41.9174 45.3026 40.6434 46.1502 39.2004 46.7352C37.7964 47.302 36.3404 47.5854 34.8376 47.5854C33.3348 47.5854 31.8814 47.302 30.4748 46.7352C29.0344 46.1502 27.7578 45.3026 26.6476 44.1924C25.5374 43.0822 24.6898 41.8082 24.1048 40.3652C23.5432 38.956 23.2598 37.5026 23.2598 35.9998C23.2598 34.497 23.5432 33.0436 24.11 31.637C24.695 30.1966 25.5426 28.92 26.6528 27.8098C27.763 26.6996 29.037 25.852 30.48 25.267C31.884 24.7028 33.3374 24.4194 34.8402 24.4194Z" />
</svg>
