<svg width="33" height="33" viewBox="0 0 33 33" xmlns="http://www.w3.org/2000/svg">
    <g fill-rule="evenodd">
        <path d="M28.1658 28.1673C34.552 21.7811 34.552 11.2189 28.1658 4.83274C21.768 -1.56506 11.2175 -1.55343 4.81969 4.84437C-1.56648 11.2305 -1.56648 21.7695 4.83132 28.1673C11.2175 34.5534 21.7797 34.5534 28.1658 28.1673Z"/>
        <path fill="currentColor" d="M12.0737 25.4155H19.9263C21.1299 25.4155 21.8105 24.7847 21.8604 23.5977L22.3833 11.686H23.479C23.9355 11.686 24.2925 11.3374 24.2925 10.8726C24.2925 10.416 23.9355 10.0674 23.479 10.0674H19.9346V8.84717C19.9346 7.47754 19.063 6.67236 17.5688 6.67236H14.4146C12.9204 6.67236 12.0488 7.47754 12.0488 8.84717V10.0674H8.521C8.06445 10.0674 7.69922 10.416 7.69922 10.8726C7.69922 11.3374 8.06445 11.686 8.521 11.686H9.6167L10.1396 23.5977C10.1895 24.7847 10.8701 25.4155 12.0737 25.4155ZM13.9165 8.91357C13.9165 8.56494 14.1489 8.34912 14.5391 8.34912H17.4443C17.8345 8.34912 18.0752 8.56494 18.0752 8.91357V10.0674H13.9165V8.91357ZM13.3188 22.7676C12.9619 22.7676 12.7129 22.5352 12.7046 22.1782L12.4556 13.4956C12.4473 13.1387 12.688 12.9062 13.0615 12.9062C13.4185 12.9062 13.6675 13.1387 13.6758 13.4873L13.9248 22.1699C13.9331 22.5186 13.6924 22.7676 13.3188 22.7676ZM16 22.7676C15.6348 22.7676 15.3774 22.5269 15.3774 22.1782V13.4873C15.3774 13.1387 15.6348 12.9062 16 12.9062C16.3652 12.9062 16.6143 13.1387 16.6143 13.4873V22.1782C16.6143 22.5269 16.3652 22.7676 16 22.7676ZM18.6812 22.7676C18.2993 22.7676 18.0586 22.5269 18.0669 22.1699L18.3159 13.4873C18.3242 13.1387 18.5732 12.9062 18.9385 12.9062C19.3037 12.9062 19.5444 13.147 19.5361 13.4956L19.2871 22.1782C19.2788 22.5352 19.0298 22.7676 18.6812 22.7676Z"/>
    </g>
</svg>
