<svg width="72" height="72" viewBox="0 0 72 72" xmlns="http://www.w3.org/2000/svg">
    <g fill="currentColor" fill-rule="evenodd">
        <path d="M72 36C72 55.8823 55.8823 72 36 72C16.1177 72 0 55.8823 0 36C0 16.1177 16.1177 0 36 0C55.8823 0 72 16.1177 72 36Z"/>
    </g>
    <path d="M68 36C68 53.6731 53.6731 68 36 68C18.3269 68 4 53.6731 4 36C4 18.3269 18.3269 4 36 4C53.6731 4 68 18.3269 68 36Z" />
    <g fill="currentColor" fill-rule="evenodd">
        <path d="M36 66C52.5685 66 66 52.5685 66 36C66 19.4315 52.5685 6 36 6C19.4315 6 6 19.4315 6 36C6 52.5685 19.4315 66 36 66Z"/>
    </g>
    <path d="M35.5283 38.834C35.9902 38.834 36.3877 38.4473 36.3877 37.9961V26.9639L36.3232 25.3525L37.043 26.1152L38.6758 27.8555C38.8262 28.0273 39.041 28.1133 39.2559 28.1133C39.6963 28.1133 40.04 27.791 40.04 27.3506C40.04 27.125 39.9434 26.9531 39.7822 26.792L36.1514 23.29C35.9365 23.0752 35.7539 23 35.5283 23C35.3135 23 35.1309 23.0752 34.9053 23.29L31.2744 26.792C31.1133 26.9531 31.0273 27.125 31.0273 27.3506C31.0273 27.791 31.3496 28.1133 31.8008 28.1133C32.0049 28.1133 32.2412 28.0273 32.3916 27.8555L34.0137 26.1152L34.7441 25.3525L34.6797 26.9639V37.9961C34.6797 38.4473 35.0664 38.834 35.5283 38.834Z"/>
    <path d="M29.373 47.2451H41.6943C43.9395 47.2451 45.0674 46.1279 45.0674 43.915V33.1943C45.0674 30.9814 43.9395 29.8643 41.6943 29.8643H38.6973V31.5938H41.6621C42.7256 31.5938 43.3379 32.1738 43.3379 33.291V43.8184C43.3379 44.9355 42.7256 45.5156 41.6621 45.5156H29.3945C28.3203 45.5156 27.7295 44.9355 27.7295 43.8184V33.291C27.7295 32.1738 28.3203 31.5938 29.3945 31.5938H32.3701V29.8643H29.373C27.1279 29.8643 26 30.9814 26 33.1943V43.915C26 46.1279 27.1279 47.2451 29.373 47.2451Z" />
</svg>
