<?xml version="1.0" encoding="UTF-8"?>
<!-- Generator: Apple Native CoreSVG 232.5 -->
<!DOCTYPE svg PUBLIC "-//W3C//DTD SVG 1.1//EN" "http://www.w3.org/Graphics/SVG/1.1/DTD/svg11.dtd">
<svg version="1.1" xmlns="http://www.w3.org/2000/svg" xmlns:xlink="http://www.w3.org/1999/xlink" width="32.25" height="31.8906" viewBox="0 0 32.25 31.8906">
	<g>
		<path d="M31.875 15.9375C31.875 24.6406 24.6562 31.875 15.9375 31.875C7.23438 31.875 0 24.6406 0 15.9375C0 7.21875 7.21875 0 15.9219 0C24.6406 0 31.875 7.21875 31.875 15.9375ZM20.3281 9.78125L15.9375 14.1406L11.5781 9.79688C11.3281 9.5625 11.0469 9.4375 10.6875 9.4375C9.96875 9.4375 9.40625 9.98438 9.40625 10.7188C9.40625 11.0625 9.53125 11.375 9.78125 11.625L14.1094 15.9531L9.78125 20.2969C9.53125 20.5312 9.40625 20.8594 9.40625 21.2031C9.40625 21.9219 9.96875 22.5 10.6875 22.5C11.0469 22.5 11.375 22.375 11.625 22.125L15.9375 17.7812L20.2656 22.125C20.5 22.375 20.8281 22.5 21.1875 22.5C21.9219 22.5 22.5 21.9219 22.5 21.2031C22.5 20.8438 22.375 20.5156 22.1094 20.2812L17.7812 15.9531L22.125 11.6094C22.4062 11.3281 22.5156 11.0469 22.5156 10.6875C22.5156 9.96875 21.9375 9.40625 21.2188 9.40625C20.875 9.40625 20.5938 9.51562 20.3281 9.78125Z" fill="currentColor" fill-opacity="0.85" />
	</g>
</svg>
